<?xml version="1.0" encoding="utf-8"?>
<!-- Generator: Adobe Illustrator 15.0.0, SVG Export Plug-In . SVG Version: 6.00 Build 0)  -->
<!DOCTYPE svg PUBLIC "-//W3C//DTD SVG 1.1//EN" "http://www.w3.org/Graphics/SVG/1.1/DTD/svg11.dtd">
<svg version="1.1" id="Layer_1" xmlns="http://www.w3.org/2000/svg" xmlns:xlink="http://www.w3.org/1999/xlink" x="0px" y="0px"
	 width="2075px" height="380px" viewBox="0 0 2075 380" enable-background="new 0 0 2075 380" xml:space="preserve">
<rect x="1936.917" y="235.044" fill="#FF5751" width="129" height="129"/>
<g>
	<path fill="#040F3D" d="M291.583,74.875h-102.5v297.25h-84.5V74.875H2.083v-67h289.5V74.875z"/>
	<path fill="#040F3D" d="M683.331,189.875c0,26.336-4.543,50.836-13.625,73.5c-9.086,22.668-21.875,42.375-38.375,59.125
		s-36.375,29.875-59.625,39.375s-49.043,14.25-77.375,14.25c-28.336,0-54.168-4.75-77.5-14.25
		c-23.336-9.5-43.293-22.625-59.875-39.375c-16.586-16.75-29.418-36.457-38.5-59.125c-9.086-22.664-13.625-47.164-13.625-73.5
		c0-26.332,4.539-50.832,13.625-73.5c9.082-22.664,21.914-42.332,38.5-59c16.582-16.664,36.539-29.75,59.875-39.25
		c23.332-9.5,49.164-14.25,77.5-14.25c28.332,0,54.125,4.793,77.375,14.375c23.25,9.586,43.125,22.711,59.625,39.375
		c16.5,16.668,29.289,36.336,38.375,59C678.788,139.293,683.331,163.711,683.331,189.875z M596.831,189.875
		c0-18-2.336-34.207-7-48.625c-4.668-14.414-11.375-26.625-20.125-36.625s-19.461-17.664-32.125-23c-12.668-5.332-27.086-8-43.25-8
		c-16.336,0-30.875,2.668-43.625,8c-12.75,5.336-23.5,13-32.25,23s-15.461,22.211-20.125,36.625c-4.668,14.418-7,30.625-7,48.625
		c0,18.168,2.332,34.461,7,48.875c4.664,14.418,11.375,26.625,20.125,36.625s19.5,17.625,32.25,22.875s27.289,7.875,43.625,7.875
		c16.164,0,30.582-2.625,43.25-7.875c12.664-5.25,23.375-12.875,32.125-22.875s15.457-22.207,20.125-36.625
		C594.495,224.336,596.831,208.043,596.831,189.875z"/>
	<path fill="#040F3D" d="M723.831,188.875h135v62.5h-135V188.875z"/>
	<path fill="#040F3D" d="M1250.577,189.875c0,26.336-4.543,50.625-13.625,72.875c-9.086,22.25-21.875,41.5-38.375,57.75
		s-36.375,28.918-59.625,38c-23.25,9.086-49.043,13.625-77.375,13.625h-141.5V7.875h141.5c28.332,0,54.125,4.586,77.375,13.75
		c23.25,9.168,43.125,21.836,59.625,38c16.5,16.168,29.289,35.375,38.375,57.625C1246.034,139.5,1250.577,163.711,1250.577,189.875z
		 M1164.077,189.875c0-18-2.336-34.25-7-48.75c-4.668-14.5-11.375-26.789-20.125-36.875c-8.75-10.082-19.461-17.832-32.125-23.25
		c-12.668-5.414-27.086-8.125-43.25-8.125h-56.5v234.25h56.5c16.164,0,30.582-2.707,43.25-8.125
		c12.664-5.414,23.375-13.164,32.125-23.25c8.75-10.082,15.457-22.375,20.125-36.875
		C1161.741,224.375,1164.077,208.043,1164.077,189.875z"/>
	<path fill="#040F3D" d="M1658.07,189.875c0,26.336-4.543,50.836-13.625,73.5c-9.086,22.668-21.875,42.375-38.375,59.125
		s-36.375,29.875-59.625,39.375s-49.043,14.25-77.375,14.25c-28.336,0-54.168-4.75-77.5-14.25
		c-23.336-9.5-43.293-22.625-59.875-39.375c-16.586-16.75-29.418-36.457-38.5-59.125c-9.086-22.664-13.625-47.164-13.625-73.5
		c0-26.332,4.539-50.832,13.625-73.5c9.082-22.664,21.914-42.332,38.5-59c16.582-16.664,36.539-29.75,59.875-39.25
		c23.332-9.5,49.164-14.25,77.5-14.25c28.332,0,54.125,4.793,77.375,14.375c23.25,9.586,43.125,22.711,59.625,39.375
		c16.5,16.668,29.289,36.336,38.375,59C1653.527,139.293,1658.07,163.711,1658.07,189.875z M1571.57,189.875
		c0-18-2.336-34.207-7-48.625c-4.668-14.414-11.375-26.625-20.125-36.625s-19.461-17.664-32.125-23c-12.668-5.332-27.086-8-43.25-8
		c-16.336,0-30.875,2.668-43.625,8c-12.75,5.336-23.5,13-32.25,23s-15.461,22.211-20.125,36.625c-4.668,14.418-7,30.625-7,48.625
		c0,18.168,2.332,34.461,7,48.875c4.664,14.418,11.375,26.625,20.125,36.625s19.5,17.625,32.25,22.875s27.289,7.875,43.625,7.875
		c16.164,0,30.582-2.625,43.25-7.875c12.664-5.25,23.375-12.875,32.125-22.875s15.457-22.207,20.125-36.625
		C1569.234,224.336,1571.57,208.043,1571.57,189.875z"/>
	<path fill="#040F3D" d="M1860.075,169.625c-2,3.168-4.125,5.418-6.375,6.75c-2.25,1.336-5.125,2-8.625,2
		c-3.668,0-7.336-0.789-11-2.375c-3.668-1.582-7.625-3.289-11.875-5.125c-4.25-1.832-9.043-3.539-14.375-5.125
		c-5.336-1.582-11.418-2.375-18.25-2.375c-9.836,0-17.375,1.875-22.625,5.625s-7.875,8.961-7.875,15.625
		c0,4.836,1.707,8.836,5.125,12c3.414,3.168,7.957,5.961,13.625,8.375c5.664,2.418,12.082,4.711,19.25,6.875
		c7.164,2.168,14.5,4.586,22,7.25c7.5,2.668,14.832,5.793,22,9.375c7.164,3.586,13.582,8,19.25,13.25
		c5.664,5.25,10.207,11.625,13.625,19.125c3.414,7.5,5.125,16.5,5.125,27c0,12.836-2.336,24.668-7,35.5
		c-4.668,10.836-11.625,20.168-20.875,28c-9.25,7.836-20.668,13.918-34.25,18.25c-13.586,4.332-29.211,6.5-46.875,6.5
		c-8.836,0-17.668-0.836-26.5-2.5c-8.836-1.664-17.375-3.914-25.625-6.75c-8.25-2.832-15.875-6.207-22.875-10.125
		c-7-3.914-13-8.125-18-12.625l18-28.5c2-3.332,4.539-5.957,7.625-7.875c3.082-1.914,7.039-2.875,11.875-2.875
		c4.5,0,8.539,1,12.125,3c3.582,2,7.457,4.168,11.625,6.5c4.164,2.336,9.039,4.5,14.625,6.5c5.582,2,12.625,3,21.125,3
		c6,0,11.082-0.625,15.25-1.875c4.164-1.25,7.5-2.957,10-5.125c2.5-2.164,4.332-4.582,5.5-7.25c1.164-2.664,1.75-5.414,1.75-8.25
		c0-5.164-1.75-9.414-5.25-12.75c-3.5-3.332-8.086-6.207-13.75-8.625c-5.668-2.414-12.125-4.664-19.375-6.75
		c-7.25-2.082-14.625-4.457-22.125-7.125c-7.5-2.664-14.875-5.875-22.125-9.625s-13.711-8.5-19.375-14.25
		c-5.668-5.75-10.25-12.789-13.75-21.125c-3.5-8.332-5.25-18.414-5.25-30.25c0-11,2.125-21.457,6.375-31.375
		c4.25-9.914,10.625-18.625,19.125-26.125s19.164-13.457,32-17.875c12.832-4.414,27.832-6.625,45-6.625
		c9.332,0,18.375,0.836,27.125,2.5c8.75,1.668,16.957,4,24.625,7c7.664,3,14.664,6.543,21,10.625
		c6.332,4.086,11.914,8.543,16.75,13.375L1860.075,169.625z"/>
</g>
<path fill="#FF5751" d="M2072.917,241.74c0-7.564-6.132-13.696-13.696-13.696h-115.607c-7.564,0-13.696,6.132-13.696,13.696v115.607
	c0,7.564,6.132,13.696,13.696,13.696h115.607c7.564,0,13.696-6.132,13.696-13.696V241.74z M2058.917,356.044h-114v-114h114V356.044z
	"/>
<g>
	<path fill="#FFFFFF" d="M1990.802,330.919c-1.631,1.518-3.95,1.676-5.182,0.354l-29.583-31.737
		c-1.232-1.321-0.911-3.625,0.717-5.145l7.375-6.875c1.631-1.52,3.952-1.678,5.185-0.354l29.581,31.735
		c1.232,1.323,0.911,3.626-0.72,5.146L1990.802,330.919z"/>
	<path fill="#FFFFFF" d="M1978.704,323.763c-1.511-1.638-0.938-4.624,1.279-6.667l53.221-49.095c2.218-2.046,5.24-2.378,6.75-0.742
		l6.838,7.412c1.51,1.639,0.935,4.626-1.283,6.67l-53.215,49.094c-2.223,2.046-5.241,2.377-6.75,0.736L1978.704,323.763z"/>
</g>
</svg>
